:FULLY-SPECIFIED
:FORCE-ALL-JOINTS-BE-3DOF
:DEGREES
781
root 1.62501 16.3524 18.5703 -14.2018 77.1786 339.608
lfemur -36.7597 13.3284 -14.186
ltibia 50.3822 0 0
lfoot -21.9312 20.6292 0
ltoes 16.1695 0 0
rfemur -15.5317 -22.7665 21.5028
rtibia 51.9775 0 0
rfoot -18.0145 -32.4554 0
rtoes -25.1956 0 0
lowerback 1.14316 4.68658 -0.891577
upperback -0.900646 6.23005 -3.80697
thorax -1.23342 3.1268 -3.5363
lowerneck -5.33163 -6.64081 -0.673649
upperneck -2.48616 -8.73556 5.12773
head 0.387668 -4.29732 1.51334
lclavicle 5.95447e-15 -6.97985e-19 0
lhumerus -55.7774 -11.63 94.8106
lradius 70.6007 0 0
lwrist 12.9312 0 0
lhand -21.2558 -5.0634 0
lfingers 7.12502 0 0
lthumb 5.12733 24.8536 0
rclavicle 5.95447e-15 -6.97985e-19 0
rhumerus -30.6621 48.1218 -112.498
rradius 80.0928 0 0
rwrist 5.90868 0 0
rhand -23.8763 -20.1049 0
rfingers 7.12502 0 0
rthumb 2.59674 -770.068 0
782
root 1.6279 16.3534 18.5961 -14.1054 76.7521 339.674
lfemur -36.7516 13.257 -14.0927
ltibia 50.2098 0 0
lfoot -21.8568 20.6043 0
ltoes 16.1903 0 0
rfemur -15.4162 -22.6153 21.5057
rtibia 51.8044 0 0
rfoot -18.0311 -32.3531 0
rtoes -25.2059 0 0
lowerback 1.13637 4.69865 -0.85633
upperback -0.897966 6.24623 -3.78704
thorax -1.22379 3.13487 -3.53389
lowerneck -5.33214 -6.61373 -0.652465
upperneck -2.47055 -8.70133 5.10803
head 0.391073 -4.28038 1.5044
lclavicle 5.92784e-15 -2.74579e-18 0
lhumerus -55.7661 -11.6 94.7866
lradius 70.504 0 0
lwrist 12.9575 0 0
lhand -21.1788 -5.00872 0
lfingers 7.12502 0 0
lthumb 5.2016 24.9038 0
rclavicle 5.92784e-15 -2.74579e-18 0
rhumerus -30.6552 48.1058 -112.473
rradius 80.0246 0 0
rwrist 5.8641 0 0
rhand -23.7866 -20.1149 0
rfingers 7.12502 0 0
rthumb 2.68324 -770.073 0
783
root 1.63261 16.355 18.638 -13.9488 76.0589 339.78
lfemur -36.7384 13.1411 -13.941
ltibia 49.9295 0 0
lfoot -21.7358 20.5638 0
ltoes 16.224 0 0
rfemur -15.2286 -22.3694 21.5105
rtibia 51.5229 0 0
rfoot -18.0581 -32.1868 0
rtoes -25.2226 0 0
lowerback 1.12533 4.71827 -0.799041
upperback -0.893611 6.27252 -3.75463
thorax -1.20812 3.14798 -3.52998
lowerneck -5.33297 -6.56971 -0.618033
upperneck -2.44518 -8.64568 5.07601
head 0.396606 -4.25285 1.48987
lclavicle 5.88458e-15 -6.0742e-18 0
lhumerus -55.7477 -11.5513 94.7478
lradius 70.3467 0 0
lwrist 13.0002 0 0
lhand -21.0536 -4.91983 0
lfingers 7.12502 0 0
lthumb 5.32231 24.9853 0
rclavicle 5.88458e-15 -6.0742e-18 0
rhumerus -30.644 48.0798 -112.432
rradius 79.9136 0 0
rwrist 5.79165 0 0
rhand -23.6408 -20.1312 0
rfingers 7.12502 0 0
rthumb 2.82383 -770.082 0
784
root 1.63902 16.3571 18.6951 -13.7352 75.1134 339.925
lfemur -36.7205 12.9829 -13.7342
ltibia 49.5472 0 0
lfoot -21.5708 20.5086 0
ltoes 16.2701 0 0
rfemur -14.9728 -22.0341 21.517
rtibia 51.1391 0 0
rfoot -18.0949 -31.96 0
rtoes -25.2454 0 0
lowerback 1.11028 4.74504 -0.720902
upperback -0.88767 6.30838 -3.71044
thorax -1.18675 3.16586 -3.52464
lowerneck -5.3341 -6.50966 -0.57107
upperneck -2.41058 -8.56979 5.03234
head 0.404154 -4.2153 1.47006
lclavicle 5.82556e-15 -1.0614e-17 0
lhumerus -55.7227 -11.4849 94.6948
lradius 70.1322 0 0
lwrist 13.0585 0 0
lhand -20.8827 -4.7986 0
lfingers 7.12502 0 0
lthumb 5.48697 25.0965 0
rclavicle 5.82556e-15 -1.0614e-17 0
rhumerus -30.6286 48.0443 -112.377
rradius 79.7623 0 0
rwrist 5.69283 0 0
rhand -23.4419 -20.1534 0
rfingers 7.12502 0 0
rthumb 3.01559 -770.094 0
785
root 1.64705 16.3598 18.7667 -13.4678 73.9301 340.107
lfemur -36.6979 12.785 -13.4753
ltibia 49.0687 0 0
lfoot -21.3642 20.4395 0
ltoes 16.3277 0 0
rfemur -14.6525 -21.6144 21.5252
rtibia 50.6587 0 0
rfoot -18.141 -31.6762 0
rtoes -25.2739 0 0
lowerback 1.09144 4.77854 -0.623104
upperback -0.880235 6.35327 -3.65512
thorax -1.16001 3.18824 -3.51796
lowerneck -5.33551 -6.43452 -0.512291
upperneck -2.36727 -8.4748 4.97768
head 0.4136 -4.1683 1.44525
lclavicle 5.75169e-15 -1.62959e-17 0
lhumerus -55.6913 -11.4018 94.6285
lradius 69.8637 0 0
lwrist 13.1314 0 0
lhand -20.669 -4.64687 0
lfingers 7.12502 0 0
lthumb 5.69305 25.2357 0
rclavicle 5.75169e-15 -1.62959e-17 0
rhumerus -30.6094 48 -112.308
rradius 79.5729 0 0
rwrist 5.56915 0 0
rhand -23.193 -20.1813 0
rfingers 7.12502 0 0
rthumb 3.25559 -770.109 0
786
root 1.6566 16.363 18.8517 -13.15 72.5232 340.323
lfemur -36.6712 12.5497 -13.1676
ltibia 48.4999 0 0
lfoot -21.1187 20.3573 0
ltoes 16.3963 0 0
rfemur -14.2718 -21.1155 21.5349
rtibia 50.0876 0 0
rfoot -18.1958 -31.3387 0
rtoes -25.3078 0 0
lowerback 1.06905 4.81836 -0.506838
upperback -0.871396 6.40663 -3.58936
thorax -1.12821 3.21485 -3.51002
lowerneck -5.33719 -6.34518 -0.442413
upperneck -2.31578 -8.36187 4.9127
head 0.42483 -4.11243 1.41577
lclavicle 5.66388e-15 -2.30508e-17 0
lhumerus -55.6541 -11.303 94.5496
lradius 69.5445 0 0
lwrist 13.2182 0 0
lhand -20.4148 -4.46649 0
lfingers 7.12502 0 0
lthumb 5.93804 25.4011 0
rclavicle 5.66388e-15 -2.30508e-17 0
rhumerus -30.5865 47.9472 -112.226
rradius 79.3477 0 0
rwrist 5.42211 0 0
rhand -22.8971 -20.2143 0
rfingers 7.12502 0 0
rthumb 3.54092 -770.126 0
787
root 1.66757 16.3667 18.9494 -12.7849 70.9073 340.571
lfemur -36.6405 12.2794 -12.8141
ltibia 47.8465 0 0
lfoot -20.8367 20.263 0
ltoes 16.475 0 0
rfemur -13.8345 -20.5424 21.546
rtibia 49.4316 0 0
rfoot -18.2588 -30.9511 0
rtoes -25.3468 0 0
lowerback 1.04333 4.8641 -0.373296
upperback -0.861244 6.46792 -3.51383
thorax -1.0917 3.24542 -3.5009
lowerneck -5.33912 -6.24257 -0.362151
upperneck -2.25665 -8.23217 4.83807
head 0.437728 -4.04826 1.3819
lclavicle 5.56302e-15 -3.08094e-17 0
lhumerus -55.6113 -11.1895 94.459
lradius 69.1779 0 0
lwrist 13.3178 0 0
lhand -20.1229 -4.2593 0
lfingers 7.12502 0 0
lthumb 6.21943 25.5912 0
rclavicle 5.56302e-15 -3.08094e-17 0
rhumerus -30.5603 47.8867 -112.132
rradius 79.0891 0 0
rwrist 5.25323 0 0
rhand -22.5573 -20.2523 0
rfingers 7.12502 0 0
rthumb 3.86864 -770.146 0
788
root 1.67986 16.3708 19.0588 -12.3759 69.0968 340.849
lfemur -36.606 11.9765 -12.418
ltibia 47.1144 0 0
lfoot -20.5207 20.1572 0
ltoes 16.5632 0 0
rfemur -13.3446 -19.9003 21.5585
rtibia 48.6967 0 0
rfoot -18.3293 -30.5168 0
rtoes -25.3904 0 0
lowerback 1.01451 4.91536 -0.223669
upperback -0.849869 6.53659 -3.42919
thorax -1.05078 3.27966 -3.49068
lowerneck -5.34129 -6.1276 -0.272223
upperneck -2.19039 -8.08684 4.75445
head 0.45218 -3.97635 1.34395
lclavicle 5.45001e-15 -3.95025e-17 0
lhumerus -55.5634 -11.0624 94.3575
lradius 68.7672 0 0
lwrist 13.4294 0 0
lhand -19.7958 -4.02716 0
lfingers 7.12502 0 0
lthumb 6.53472 25.8041 0
rclavicle 5.45001e-15 -3.95025e-17 0
rhumerus -30.5309 47.8188 -112.027
rradius 78.7993 0 0
rwrist 5.064 0 0
rhand -22.1764 -20.2948 0
rfingers 7.12502 0 0
rthumb 4.23583 -770.169 0
